# xmcd CD database file
#
# Track frame offsets:
#	150
#	20157
#	37645
#	56787
#	74522
#	91712
#	114027
#	133417
#	150815
#	170732
#	186492
#	209060
#	228682
#	252512
#	276605
#	294117
#	312670
#
# Disc length: 4484 seconds
#
# Revision: 21
# Processed by: cddbd v1.5.2PL0 Copyright (c) Steve Scherf et al.
# Submitted via: CDex 1.79
#
DISCID=04118211
DTITLE=Michael Bolton - Greatest Hits 1985-1995
DYEAR=1995
DGENRE=Easy Listening
TTITLE0=Soul Provider
TTITLE1=(Sittin' On) The Dock Of The Bay
TTITLE2=How Am I Supposed To Live Without You
TTITLE3=How Can We Be Lovers
TTITLE4=When I'm Back On My Feet Again
TTITLE5=Georgia On My Mind
TTITLE6=Time, Love And Tenderness
TTITLE7=When A Man Loves A Woman
TTITLE8=Missing You Now
TTITLE9=Steel Bars
TTITLE10=Said I Loved You . . . But I Lied
TTITLE11=Lean On Me
TTITLE12=Can I Touch You . . . There?
TTITLE13=I Promise You
TTITLE14=I Found Someone
TTITLE15=A Love So Beautiful
TTITLE16=This River
EXTD=YEAR: 1995
EXTT0=
EXTT1=
EXTT2=
EXTT3=
EXTT4=
EXTT5=
EXTT6=
EXTT7=
EXTT8=
EXTT9=
EXTT10=
EXTT11=
EXTT12=
EXTT13=
EXTT14=
EXTT15=
EXTT16=
PLAYORDER=
